<?xml version="1.0" ?><svg style="enable-background:new 0 0 50 50;" version="1.1" viewBox="0 0 50 50" xml:space="preserve" xmlns="http://www.w3.org/2000/svg" xmlns:xlink="http://www.w3.org/1999/xlink"><g id="Layer_1"><path d="M22,1h-2C10.075,1,2,9.075,2,19v30h20v-6h18V32h7.741l-7.743-13.273C39.851,8.927,31.834,1,22,1z M38,30v11H20v6H4V19   c0-8.822,7.178-16,16-16h2c8.822,0,16,7.178,16,16v0.271L44.259,30H38z"/><polygon points="25.293,20.707 26.707,19.293 21,13.586 15.293,19.293 16.707,20.707 20,17.414 20,36 22,36 22,17.414  "/><path d="M21,5C13.832,5,8,10.832,8,18c0,5.488,3.483,10.41,8.666,12.245l0.668-1.885C12.947,26.807,10,22.644,10,18   c0-6.065,4.935-11,11-11s11,4.935,11,11c0,4.644-2.947,8.807-7.334,10.36l0.668,1.885C30.517,28.41,34,23.488,34,18   C34,10.832,28.168,5,21,5z"/></g><g/></svg>