<?xml version="1.0" ?><svg data-name="Слой 1" id="Слой_1" viewBox="0 0 128 128" xmlns="http://www.w3.org/2000/svg"><title/><path d="M33.61,62.59C27.63,60.69,24,59.3,24,56a4.66,4.66,0,0,1,1.83-3.44c2-1.64,5.13-2.15,8.79-1.43a42.11,42.11,0,0,1,7.7,2.09,2,2,0,1,0,1.36-3.76,44.46,44.46,0,0,0-8.28-2.25c-4.87-1-9.17-.16-12.11,2.26A8.56,8.56,0,0,0,20,56c0,6.46,6.58,8.56,12.39,10.41C38.37,68.31,42,69.7,42,73a5,5,0,0,1-1.8,3.75C38,78.69,34.45,79.49,30.09,79a55.46,55.46,0,0,1-7.54-1.49,2,2,0,1,0-1.1,3.84A59.23,59.23,0,0,0,29.66,83a26.6,26.6,0,0,0,2.78.15c4.29,0,7.93-1.17,10.43-3.41A9,9,0,0,0,46,73C46,66.54,39.42,64.44,33.61,62.59Z"/><path d="M128,72a34.06,34.06,0,0,0-25-32.79A37,37,0,0,0,29.66,33H6.13A6.14,6.14,0,0,0,0,39.13V92.87A6.14,6.14,0,0,0,6.13,99H43.18a25,25,0,0,0-.18,3,26,26,0,0,0,51.69,4A34,34,0,0,0,128,72ZM66,7A33,33,0,0,1,99,38.37a34,34,0,0,0-33,14.3V39.13A6.14,6.14,0,0,0,59.87,33H33.75A33.17,33.17,0,0,1,66,7ZM4,92.87V39.13A2.14,2.14,0,0,1,6.13,37H59.87A2.14,2.14,0,0,1,62,39.13V92.87A2.14,2.14,0,0,1,59.87,95H6.13A2.14,2.14,0,0,1,4,92.87ZM69,124a22,22,0,0,1-22-22,21.41,21.41,0,0,1,.23-3H59.87A6.14,6.14,0,0,0,66,92.87V80.23A21.41,21.41,0,0,1,69,80a22,22,0,0,1,0,44Zm26-22A26,26,0,0,0,69,76a25,25,0,0,0-3,.18v-15a1.09,1.09,0,0,1,.08-.15A30,30,0,1,1,95,102Z"/></svg>