<svg id="0f9658dd-7479-43fc-bc88-714211c6291a" data-name="Layer 1" xmlns="http://www.w3.org/2000/svg" width="197.07" height="181.15" viewBox="0 0 197.07 181.15"><defs><style>.cff34bb6-e4c0-4b31-9250-2fcb3a9e149b{fill:#0078d3;}.\31 341b1a5-4074-45b9-a3f2-b3d5b94ea2e0{fill:#51e5ff;}</style></defs><title>01_AzureCosmosDB</title><path class="cff34bb6-e4c0-4b31-9250-2fcb3a9e149b" d="M164.38,90.73A65.08,65.08,0,1,1,85.82,42.78a0.15,0.15,0,0,0,.13,0A64.81,64.81,0,0,1,164.3,90.31,1.49,1.49,0,0,0,164.38,90.73Z" transform="translate(-1.45 -9.47)"/><path class="1341b1a5-4074-45b9-a3f2-b3d5b94ea2e0" d="M28.2,62.68a2,2,0,0,1-2-2h0A22.79,22.79,0,0,0,3.43,38a2,2,0,1,1,0-4A22.75,22.75,0,0,0,26.18,11.37a2,2,0,0,1,4,0A22.79,22.79,0,0,0,52.93,34.08a2,2,0,0,1,0,4A22.72,22.72,0,0,0,30.18,60.7,2,2,0,0,1,28.2,62.68Z" transform="translate(-1.45 -9.47)"/><path class="cff34bb6-e4c0-4b31-9250-2fcb3a9e149b" d="M168.63,190.62a1.18,1.18,0,0,1-1.18-1.18,13.61,13.61,0,0,0-13.63-13.54,1.18,1.18,0,0,1,0-2.36h0A13.63,13.63,0,0,0,167.45,160a1.18,1.18,0,1,1,2.36,0,13.58,13.58,0,0,0,13.63,13.54,1.18,1.18,0,0,1,1.18,1.18,1.2,1.2,0,0,1-1.18,1.18h0a13.63,13.63,0,0,0-13.63,13.54,1.15,1.15,0,0,1-1.18,1.18h0Z" transform="translate(-1.45 -9.47)"/><path class="1341b1a5-4074-45b9-a3f2-b3d5b94ea2e0" d="M74.25,114.83H71.64a17.17,17.17,0,0,0-12.7-20.73,15.43,15.43,0,0,0-4.16-.46H37.24a65.25,65.25,0,0,0,.63,27.76,64.54,64.54,0,0,0,14.64,28H74.25a17.26,17.26,0,0,0,17.33-17.24h0A17.29,17.29,0,0,0,74.25,114.83Z" transform="translate(-1.45 -9.47)"/><path class="1341b1a5-4074-45b9-a3f2-b3d5b94ea2e0" d="M131.24,112.81a14.71,14.71,0,0,0-14.72,14.59,14.19,14.19,0,0,0,1.77,6.94,14.61,14.61,0,0,0,4.42,28.56h9.88q1.45-.76,2.9-1.64a65.34,65.34,0,0,0,30.37-48.49H131.24v0Z" transform="translate(-1.45 -9.47)"/><path class="1341b1a5-4074-45b9-a3f2-b3d5b94ea2e0" d="M165.9,99.44a64.59,64.59,0,0,0-1.51-8.75,1.49,1.49,0,0,1-.08-0.42A64.53,64.53,0,0,0,132.76,49l-0.21-.13h-7.11a11.64,11.64,0,0,0-11.65,11.61,11.86,11.86,0,0,0,.38,3h-7.44a18,18,0,1,0,0,35.92H165.9v0.08Z" transform="translate(-1.45 -9.47)"/><path d="M195.93,47.45c-6.22-10.18-21.83-12.53-45.13-6.81a189,189,0,0,0-21.41,6.81A64.28,64.28,0,0,1,142,55.53c4-1.3,7.86-2.48,11.57-3.36a80.32,80.32,0,0,1,19-2.69c7.61,0,11.86,1.89,13.25,4.16,2.31,3.79.17,13.71-13.37,29.36-2.4,2.78-5.13,5.59-8,8.45a271.54,271.54,0,0,1-49,37.6,270.71,270.71,0,0,1-55.94,26.62c-23.59,7.7-39.7,7.53-43.28,1.64S19.79,137,37.37,119.5a63.11,63.11,0,0,1-1.43-15.14c-28,25.32-37.1,47.27-29.86,59.13,3.79,6.18,12.07,9.67,24.18,9.67a122.41,122.41,0,0,0,41.85-9.25,299.84,299.84,0,0,0,49.42-24.77A298.66,298.66,0,0,0,166,106.21a177.23,177.23,0,0,0,15.31-15.48C197.15,72.56,202.15,57.63,195.93,47.45Z" transform="translate(-1.45 -9.47)"/></svg>