<?xml version="1.0" ?><svg id="Layer_1" style="enable-background:new 0 0 324 60;" version="1.1" viewBox="0 0 324 60" xml:space="preserve" xmlns="http://www.w3.org/2000/svg" xmlns:xlink="http://www.w3.org/1999/xlink"><style type="text/css">
	.st0{fill:#1672B8;}
</style><path class="st0" d="M87.6,41.1c1,0.9,2.4,1.7,4.2,2.2c1.7,0.6,3.3,0.9,4.8,0.9c4.9,0,7.3-1.8,7.3-5.5c0-1.1-0.3-2-0.8-2.8  c-0.5-0.8-1.2-1.5-2-2.1c-0.8-0.6-2.5-1.6-5.1-2.9c-3.1-1.7-5.3-3.2-6.5-4.6c-1.2-1.4-1.8-3.2-1.8-5.3c0-2.8,1.1-5.1,3.3-6.8  c2.2-1.7,5-2.5,8.2-2.5c3.3,0,5.7,0.4,7.1,1.2v4.4c-1.9-1.4-4.5-2.1-7.6-2.1c-2.1,0-3.9,0.5-5.2,1.4c-1.3,1-2,2.3-2,3.9  c0,1.5,0.5,2.7,1.4,3.7c0.9,1,2.9,2.2,5.9,3.7c3.5,1.8,5.9,3.5,7.1,5.1c1.2,1.6,1.8,3.4,1.8,5.2c0,3-1.1,5.3-3.1,6.9  c-2.1,1.6-5,2.4-8.7,2.4c-1.2,0-2.6-0.2-4.4-0.6c-1.8-0.4-3.1-0.9-3.9-1.4L87.6,41.1L87.6,41.1z M133.6,47.1H130V32.7  c0-5.3-1.9-7.9-5.7-7.9c-1.9,0-3.5,0.8-4.8,2.3c-1.3,1.5-2,3.5-2,5.9v14.1H114V10.2h3.6v16.1h0.1c1.8-3.2,4.5-4.7,7.9-4.7  c5.4,0,8.1,3.4,8.1,10.1L133.6,47.1L133.6,47.1z M141.5,24c2.3-1.6,5-2.3,8.1-2.3c5.6,0,8.3,3.1,8.3,9.2v16.3h-3.6v-3.9h-0.1  c-1.7,3-4.1,4.5-7.4,4.5c-2.3,0-4.2-0.6-5.6-2c-1.4-1.3-2.1-3-2.1-5.2c0-4.6,2.6-7.3,7.9-8.1l7.2-1.1c0-4.3-1.7-6.5-5-6.5  c-2.9,0-5.5,1-7.8,3.1V24L141.5,24z M148.4,35.3c-1.9,0.3-3.3,0.7-4.1,1.4c-0.9,0.7-1.3,1.9-1.3,3.6c0,1.3,0.4,2.3,1.3,3.1  c0.9,0.8,2,1.2,3.4,1.2c1.9,0,3.5-0.7,4.8-2.1c1.3-1.4,1.9-3.2,1.9-5.4v-2.5L148.4,35.3L148.4,35.3z M177.6,26.1  c-0.7-0.5-1.6-0.8-2.9-0.8c-1.6,0-3,0.8-4.1,2.5c-1.1,1.7-1.7,3.9-1.7,6.6v12.7h-3.6V22.2h3.6v5.2h0.1c0.6-1.8,1.4-3.1,2.5-4.1  c1.1-1,2.4-1.5,3.7-1.5c1,0,1.8,0.1,2.4,0.3V26.1L177.6,26.1z M200.2,35.6h-17c0.1,2.9,0.8,5.1,2.2,6.6c1.4,1.5,3.3,2.3,5.7,2.3  c2.7,0,5.2-0.9,7.5-2.8v3.6c-2.1,1.6-4.9,2.4-8.3,2.4c-3.4,0-6-1.1-7.9-3.4c-1.9-2.3-2.9-5.5-2.9-9.5c0-3.8,1.1-6.9,3.1-9.4  c2.1-2.5,4.7-3.7,7.8-3.7c3.1,0,5.5,1.1,7.2,3.2c1.7,2.1,2.6,5,2.6,8.7L200.2,35.6L200.2,35.6z M196.5,32.3c0-2.3-0.5-4.1-1.6-5.5  c-1.1-1.3-2.6-2-4.5-2c-1.8,0-3.4,0.7-4.7,2c-1.3,1.4-2.1,3.1-2.4,5.4H196.5L196.5,32.3z M210.3,33.8v13.2h-3.7V12.2h9.1  c3.5,0,6.3,0.9,8.2,2.7c2,1.8,3,4.4,3,7.7c0,3.4-1.2,6.1-3.5,8.3c-2.3,2.1-5.2,3.1-8.6,3H210.3L210.3,33.8z M210.3,15.8v14.5h4.2  c2.7,0,4.9-0.6,6.3-1.9c1.5-1.3,2.2-3.1,2.2-5.5c0-4.7-2.7-7-8-7L210.3,15.8L210.3,15.8z M229.2,35c0-4.1,1.1-7.4,3.2-9.8  c2.2-2.4,5.1-3.6,8.9-3.6c3.5,0,6.2,1.1,8.3,3.4c2,2.3,3,5.5,3,9.5c0,3.9-1.1,7.1-3.3,9.5c-2.2,2.4-5,3.6-8.6,3.6  c-3.5,0-6.3-1.2-8.4-3.5C230.3,41.8,229.2,38.8,229.2,35L229.2,35z M232.9,34.8c0,2.9,0.7,5.3,2.2,7.1c1.5,1.8,3.5,2.6,5.9,2.6  c2.6,0,4.5-0.8,5.9-2.5c1.4-1.7,2-4.1,2-7.2c0-3.1-0.7-5.6-2.1-7.3c-1.4-1.7-3.3-2.6-5.9-2.6c-2.5,0-4.4,0.9-5.9,2.7  C233.6,29.3,232.9,31.7,232.9,34.8L232.9,34.8z M258.4,13.2c0-0.7,0.2-1.3,0.7-1.8c0.5-0.5,1-0.7,1.7-0.7c0.7,0,1.3,0.2,1.7,0.7  c0.5,0.5,0.7,1.1,0.7,1.8c0,0.7-0.2,1.3-0.7,1.8c-0.5,0.5-1,0.7-1.7,0.7c-0.7,0-1.2-0.2-1.7-0.7C258.6,14.6,258.4,14,258.4,13.2  L258.4,13.2z M258.9,47.1V22.2h3.6v24.9L258.9,47.1L258.9,47.1z M290,47.1h-3.6V32.9c0-5.4-1.9-8.1-5.7-8.1c-1.9,0-3.6,0.8-4.8,2.3  c-1.3,1.5-1.9,3.5-1.9,5.8v14.2h-3.6V22.2h3.6v4.2h0.1c1.8-3.2,4.4-4.7,7.9-4.7c2.6,0,4.6,0.9,6,2.6c1.4,1.8,2.1,4.3,2.1,7.6  L290,47.1L290,47.1z M308.2,46.9c-0.9,0.5-2.1,0.8-3.5,0.8c-4.1,0-6.2-2.4-6.2-7.2v-15h-4.1v-3.2h4.1v-6.1l3.6-1.2v7.3h6.1v3.2h-6.1  v14.3c0,1.8,0.3,3,0.8,3.7c0.6,0.7,1.5,1,2.7,1c1,0,1.8-0.3,2.5-0.8L308.2,46.9L308.2,46.9z"/><path class="st0" d="M68,23.5c-0.4,0-0.8,0-1.2,0.1c-1.5-3.9-4.5-7.1-8.3-8.9c0-0.2,0.1-0.5,0.1-0.8c0-3.3-2.7-6-6-6  c-1.4,0-2.7,0.5-3.7,1.3v4.1v2.9v2.4c1,0.8,2.3,1.3,3.7,1.3c2,0,3.9-1,4.9-2.6c3.1,1.5,5.5,4.2,6.7,7.4C62.9,26,62,27.6,62,29.5  c0,1.9,0.9,3.6,2.3,4.7c-1.2,3.3-3.6,6-6.8,7.6c-1.1-1.6-2.9-2.6-4.9-2.6c-1.4,0-2.7,0.5-3.7,1.3v2.4v2.9v4.1c1,0.8,2.3,1.3,3.7,1.3  c3.3,0,6-2.7,6-6c0-0.3,0-0.5-0.1-0.8c3.8-1.8,6.8-5,8.3-9c0.4,0.1,0.8,0.1,1.2,0.1c3.3,0,6-2.7,6-6C74,26.2,71.3,23.5,68,23.5z"/><path class="st0" d="M10.8,6.3L10.7,53l34.8,6.3V0L10.8,6.3z M30.4,41.3c-2.8,2.1-6.6,1.2-9.6,0c0-1.7-0.1-3.5-0.1-5.2  c1.9,1.4,4.8,3.5,7,1.6c1.8-3-1.7-4.9-3.7-6.3c-4.3-2.6-4.5-9.8-0.3-12.5c2.5-1.5,5.4-1.1,8.1-0.7c0,1.6,0.1,3.3,0.1,4.9  c-2.3-0.7-5.1-2.1-7,0.1c-1.3,3.4,2.8,4.6,4.8,6.4C33.7,32.1,34,38.5,30.4,41.3z"/></svg>